<svg width="61" height="66" viewBox="0 0 61 66" fill="none" xmlns="http://www.w3.org/2000/svg">
<g clip-path="url(#clip0_1212_47)">
<rect width="61" height="66" fill="white"/>
<mask id="path-1-inside-1_1212_47" fill="white">
<path d="M24.8994 16.9541H16.1592V15.1963C16.1592 13.6989 16.0697 12.7549 15.8906 12.3643C15.7279 11.9574 15.3047 11.7539 14.6211 11.7539C14.0677 11.7539 13.6527 11.9411 13.376 12.3154C13.0993 12.6735 12.9609 13.2188 12.9609 13.9512C12.9609 14.944 13.026 15.6764 13.1562 16.1484C13.3027 16.6042 13.7178 17.1087 14.4014 17.6621C15.1012 18.2155 16.5254 19.0212 18.6738 20.0791C21.5384 21.4788 23.4183 22.7972 24.3135 24.0342C25.2087 25.2712 25.6562 27.0697 25.6562 29.4297C25.6562 32.0664 25.3145 34.0602 24.6309 35.4111C23.9473 36.7458 22.7998 37.7793 21.1885 38.5117C19.5934 39.2279 17.6647 39.5859 15.4023 39.5859C12.8958 39.5859 10.7474 39.1953 8.95703 38.4141C7.18294 37.6328 5.96224 36.5749 5.29492 35.2402C4.6276 33.9056 4.29395 31.8874 4.29395 29.1855V27.623H13.0342V29.6738C13.0342 31.4154 13.14 32.5465 13.3516 33.0674C13.5794 33.5882 14.0189 33.8486 14.6699 33.8486C15.3698 33.8486 15.8581 33.6777 16.1348 33.3359C16.4115 32.9779 16.5498 32.2373 16.5498 31.1143C16.5498 29.568 16.3708 28.5996 16.0127 28.209C15.6383 27.8184 13.7259 26.6628 10.2754 24.7422C7.37826 23.1146 5.6123 21.6416 4.97754 20.3232C4.34277 18.9886 4.02539 17.4098 4.02539 15.5869C4.02539 12.999 4.36719 11.0947 5.05078 9.87402C5.73438 8.63704 6.88997 7.6849 8.51758 7.01758C10.1615 6.35026 12.0658 6.0166 14.2305 6.0166C16.3789 6.0166 18.2018 6.29329 19.6992 6.84668C21.2129 7.38379 22.3685 8.09993 23.166 8.99512C23.9798 9.8903 24.4681 10.7204 24.6309 11.4854C24.8099 12.2503 24.8994 13.4466 24.8994 15.0742V16.9541Z"/>
</mask>
<path d="M24.8994 16.9541H16.1592V15.1963C16.1592 13.6989 16.0697 12.7549 15.8906 12.3643C15.7279 11.9574 15.3047 11.7539 14.6211 11.7539C14.0677 11.7539 13.6527 11.9411 13.376 12.3154C13.0993 12.6735 12.9609 13.2188 12.9609 13.9512C12.9609 14.944 13.026 15.6764 13.1562 16.1484C13.3027 16.6042 13.7178 17.1087 14.4014 17.6621C15.1012 18.2155 16.5254 19.0212 18.6738 20.0791C21.5384 21.4788 23.4183 22.7972 24.3135 24.0342C25.2087 25.2712 25.6562 27.0697 25.6562 29.4297C25.6562 32.0664 25.3145 34.0602 24.6309 35.4111C23.9473 36.7458 22.7998 37.7793 21.1885 38.5117C19.5934 39.2279 17.6647 39.5859 15.4023 39.5859C12.8958 39.5859 10.7474 39.1953 8.95703 38.4141C7.18294 37.6328 5.96224 36.5749 5.29492 35.2402C4.6276 33.9056 4.29395 31.8874 4.29395 29.1855V27.623H13.0342V29.6738C13.0342 31.4154 13.14 32.5465 13.3516 33.0674C13.5794 33.5882 14.0189 33.8486 14.6699 33.8486C15.3698 33.8486 15.8581 33.6777 16.1348 33.3359C16.4115 32.9779 16.5498 32.2373 16.5498 31.1143C16.5498 29.568 16.3708 28.5996 16.0127 28.209C15.6383 27.8184 13.7259 26.6628 10.2754 24.7422C7.37826 23.1146 5.6123 21.6416 4.97754 20.3232C4.34277 18.9886 4.02539 17.4098 4.02539 15.5869C4.02539 12.999 4.36719 11.0947 5.05078 9.87402C5.73438 8.63704 6.88997 7.6849 8.51758 7.01758C10.1615 6.35026 12.0658 6.0166 14.2305 6.0166C16.3789 6.0166 18.2018 6.29329 19.6992 6.84668C21.2129 7.38379 22.3685 8.09993 23.166 8.99512C23.9798 9.8903 24.4681 10.7204 24.6309 11.4854C24.8099 12.2503 24.8994 13.4466 24.8994 15.0742V16.9541Z" fill="white"/>
<path d="M24.8994 16.9541V17.9541H25.8994V16.9541H24.8994ZM16.1592 16.9541H15.1592V17.9541H16.1592V16.9541ZM15.8906 12.3643L14.9621 12.7356L14.9713 12.7585L14.9816 12.7809L15.8906 12.3643ZM13.376 12.3154L14.1673 12.9269L14.1738 12.9184L14.1802 12.9098L13.376 12.3154ZM13.1562 16.1484L12.1923 16.4144L12.1978 16.4345L12.2042 16.4544L13.1562 16.1484ZM14.4014 17.6621L13.7721 18.4394L13.7811 18.4465L14.4014 17.6621ZM18.6738 20.0791L18.2321 20.9762L18.2348 20.9776L18.6738 20.0791ZM24.3135 24.0342L25.1236 23.4479L24.3135 24.0342ZM24.6309 35.4111L25.5209 35.867L25.5231 35.8626L24.6309 35.4111ZM21.1885 38.5117L21.5981 39.424L21.6023 39.4221L21.1885 38.5117ZM8.95703 38.4141L8.55401 39.3293L8.55709 39.3306L8.95703 38.4141ZM4.29395 27.623V26.623H3.29395V27.623H4.29395ZM13.0342 27.623H14.0342V26.623H13.0342V27.623ZM13.3516 33.0674L12.4251 33.4438L12.4301 33.456L12.4354 33.4682L13.3516 33.0674ZM16.1348 33.3359L16.912 33.9651L16.9191 33.9563L16.9261 33.9474L16.1348 33.3359ZM16.0127 28.209L16.7498 27.5333L16.7424 27.5251L16.7347 27.5171L16.0127 28.209ZM10.2754 24.7422L9.78559 25.614L9.78905 25.616L10.2754 24.7422ZM4.97754 20.3232L4.07446 20.7528L4.07654 20.7571L4.97754 20.3232ZM5.05078 9.87402L5.9233 10.3626L5.92602 10.3577L5.05078 9.87402ZM8.51758 7.01758L8.14144 6.09101L8.13822 6.09233L8.51758 7.01758ZM19.6992 6.84668L19.3525 7.78475L19.3648 7.78911L19.6992 6.84668ZM23.166 8.99512L22.4193 9.66036L22.4261 9.66779L23.166 8.99512ZM24.6309 11.4854L23.6528 11.6935L23.6549 11.7034L23.6572 11.7132L24.6309 11.4854ZM24.8994 15.9541H16.1592V17.9541H24.8994V15.9541ZM17.1592 16.9541V15.1963H15.1592V16.9541H17.1592ZM17.1592 15.1963C17.1592 14.4318 17.1365 13.7867 17.0876 13.2708C17.0419 12.7889 16.9649 12.3082 16.7997 11.9476L14.9816 12.7809C14.9812 12.78 15.0017 12.8286 15.0278 12.9583C15.0524 13.0808 15.0762 13.2459 15.0965 13.4596C15.1371 13.8877 15.1592 14.4633 15.1592 15.1963H17.1592ZM16.8191 11.9929C16.4264 11.0111 15.4521 10.7539 14.6211 10.7539V12.7539C14.876 12.7539 14.9887 12.7937 15.0179 12.8077C15.0277 12.8125 15.0165 12.8087 14.9983 12.7898C14.9793 12.77 14.9675 12.7489 14.9621 12.7356L16.8191 11.9929ZM14.6211 10.7539C13.8182 10.7539 13.074 11.0416 12.5718 11.721L14.1802 12.9098C14.2314 12.8405 14.3172 12.7539 14.6211 12.7539V10.7539ZM12.5847 11.704C12.1116 12.3162 11.9609 13.124 11.9609 13.9512H13.9609C13.9609 13.3135 14.087 13.0308 14.1673 12.9269L12.5847 11.704ZM11.9609 13.9512C11.9609 14.9616 12.0245 15.8063 12.1923 16.4144L14.1202 15.8825C14.0276 15.5466 13.9609 14.9264 13.9609 13.9512H11.9609ZM12.2042 16.4544C12.442 17.1943 13.0461 17.8516 13.7722 18.4394L15.0306 16.8849C14.3894 16.3658 14.1635 16.0141 14.1083 15.8424L12.2042 16.4544ZM13.7811 18.4465C14.5757 19.0748 16.0919 19.9224 18.2321 20.9762L19.1156 19.182C16.9589 18.1199 15.6268 17.3562 15.0216 16.8777L13.7811 18.4465ZM18.2348 20.9776C21.0793 22.3675 22.7626 23.5969 23.5034 24.6204L25.1236 23.4479C24.074 21.9975 21.9975 20.5902 19.1129 19.1806L18.2348 20.9776ZM23.5034 24.6204C24.2243 25.6167 24.6562 27.1728 24.6562 29.4297H26.6562C26.6562 26.9666 26.193 24.9257 25.1236 23.4479L23.5034 24.6204ZM24.6562 29.4297C24.6562 32.0097 24.3169 33.8168 23.7386 34.9596L25.5231 35.8626C26.312 34.3036 26.6562 32.1231 26.6562 29.4297H24.6562ZM23.7408 34.9553C23.1779 36.0543 22.2191 36.9448 20.7747 37.6014L21.6023 39.4221C23.3805 38.6138 24.7166 37.4373 25.5209 35.867L23.7408 34.9553ZM20.7789 37.5994C19.3446 38.2434 17.5633 38.5859 15.4023 38.5859V40.5859C17.7661 40.5859 19.8423 40.2123 21.5981 39.424L20.7789 37.5994ZM15.4023 38.5859C12.996 38.5859 10.9909 38.2105 9.35698 37.4975L8.55709 39.3306C10.5039 40.1801 12.7956 40.5859 15.4023 40.5859V38.5859ZM9.36005 37.4989C7.73455 36.7831 6.72464 35.8636 6.18935 34.793L4.40049 35.6874C5.19984 37.2861 6.63134 38.4826 8.55401 39.3293L9.36005 37.4989ZM6.18935 34.793C5.62708 33.6685 5.29395 31.8386 5.29395 29.1855H3.29395C3.29395 31.9361 3.62812 34.1427 4.40049 35.6874L6.18935 34.793ZM5.29395 29.1855V27.623H3.29395V29.1855H5.29395ZM4.29395 28.623H13.0342V26.623H4.29395V28.623ZM12.0342 27.623V29.6738H14.0342V27.623H12.0342ZM12.0342 29.6738C12.0342 30.5612 12.061 31.3133 12.1179 31.9215C12.1726 32.5064 12.2616 33.0412 12.4251 33.4438L14.278 32.691C14.23 32.5727 14.1603 32.2816 14.1092 31.7353C14.0603 31.2123 14.0342 30.528 14.0342 29.6738H12.0342ZM12.4354 33.4682C12.6234 33.8979 12.9221 34.2646 13.3422 34.5136C13.7532 34.7572 14.2135 34.8486 14.6699 34.8486V32.8486C14.4753 32.8486 14.3903 32.8099 14.3619 32.793C14.3426 32.7816 14.3076 32.7577 14.2677 32.6666L12.4354 33.4682ZM14.6699 34.8486C15.4934 34.8486 16.3563 34.6516 16.912 33.9651L15.3575 32.7067C15.3553 32.7095 15.3309 32.7415 15.2307 32.7766C15.1228 32.8144 14.9444 32.8486 14.6699 32.8486V34.8486ZM16.9261 33.9474C17.2054 33.5859 17.3478 33.1306 17.429 32.6956C17.5136 32.2431 17.5498 31.7106 17.5498 31.1143H15.5498C15.5498 31.641 15.5169 32.0402 15.4631 32.3283C15.406 32.6339 15.3408 32.7279 15.3435 32.7245L16.9261 33.9474ZM17.5498 31.1143C17.5498 30.3104 17.5039 29.6144 17.3989 29.0465C17.3002 28.5125 17.1241 27.9415 16.7498 27.5333L15.2755 28.8847C15.2594 28.8671 15.3519 28.9756 15.4322 29.4101C15.5062 29.8105 15.5498 30.3719 15.5498 31.1143H17.5498ZM16.7347 27.5171C16.5584 27.3332 16.2853 27.1346 16.0037 26.9442C15.6979 26.7374 15.2997 26.4865 14.8148 26.1934C13.8435 25.6066 12.4908 24.8308 10.7617 23.8684L9.78905 25.616C11.5105 26.5741 12.8392 27.3365 13.7804 27.9052C14.2517 28.19 14.6175 28.4212 14.8834 28.601C15.0164 28.6909 15.1179 28.7636 15.1917 28.8202C15.2718 28.8816 15.296 28.9064 15.2907 28.9009L16.7347 27.5171ZM10.7652 23.8704C9.34863 23.0745 8.23899 22.3331 7.41861 21.6488C6.58931 20.9571 6.10864 20.3673 5.87854 19.8894L4.07654 20.7571C4.4812 21.5975 5.2009 22.4034 6.13754 23.1847C7.08312 23.9734 8.30502 24.7822 9.78559 25.614L10.7652 23.8704ZM5.8806 19.8937C5.32278 18.7209 5.02539 17.2952 5.02539 15.5869H3.02539C3.02539 17.5245 3.36277 19.2563 4.07448 20.7527L5.8806 19.8937ZM5.02539 15.5869C5.02539 13.0473 5.36774 11.3547 5.92329 10.3626L4.17828 9.38542C3.36663 10.8348 3.02539 12.9507 3.02539 15.5869H5.02539ZM5.92602 10.3577C6.47466 9.36495 7.42722 8.54541 8.89693 7.94283L8.13822 6.09233C6.35273 6.82438 4.99409 7.90914 4.17554 9.39034L5.92602 10.3577ZM8.89371 7.94414C10.395 7.33472 12.1671 7.0166 14.2305 7.0166V5.0166C11.9644 5.0166 9.92795 5.3658 8.14145 6.09101L8.89371 7.94414ZM14.2305 7.0166C16.2989 7.0166 17.9972 7.28377 19.3526 7.78467L20.0459 5.90869C18.4065 5.30282 16.4589 5.0166 14.2305 5.0166V7.0166ZM19.3648 7.78911C20.7717 8.28832 21.7653 8.92621 22.4194 9.66032L23.9127 8.32991C22.9716 7.27366 21.6541 6.47925 20.0336 5.90425L19.3648 7.78911ZM22.4261 9.66779C23.1804 10.4975 23.5417 11.1716 23.6528 11.6935L25.609 11.2772C25.3945 10.2692 24.7792 9.28307 23.906 8.32244L22.4261 9.66779ZM23.6572 11.7132C23.8086 12.3601 23.8994 13.4599 23.8994 15.0742H25.8994C25.8994 13.4333 25.8112 12.1406 25.6045 11.2575L23.6572 11.7132ZM23.8994 15.0742V16.9541H25.8994V15.0742H23.8994Z" fill="#102821" mask="url(#path-1-inside-1_1212_47)"/>
<path d="M37.57 33.39C38.53 34.86 37.96 36.42 37.12 37.53C36.43 38.43 35.56 39.12 34.36 39.3C34.09 39.33 33.85 39.3 33.61 39.3C32.26 39.45 30.28 38.4 29.92 36.93C29.56 35.55 29.92 34.41 30.79 33.36C31.57 32.46 32.47 31.77 33.67 31.68C34.9 31.56 36.73 32.1 37.57 33.39Z" fill="#102821"/>
<path d="M23.4359 23H8.58647L16.0112 27.9355C16.3412 27.9355 16.8032 28.7032 16.0112 31.7742C15.2193 34.8452 14.325 33.0538 13.5 31.7742L13 29.5V26.8387H4.13166C3.63668 26.8387 4.62664 34.5161 5.6166 36.7097C6.40856 38.4645 11.8863 39.6344 14.5262 40C15.0212 40 18.4161 39.5 20 39.5C21.9799 39.5 24.3561 36.4403 24.9208 35.5C26.49 32.8871 24.9208 26.8387 24.9208 25.7419C24.9208 24.8645 23.9308 23.5484 23.4359 23Z" fill="#102821"/>
</g>
<defs>
<clipPath id="clip0_1212_47">
<rect width="61" height="66" fill="white"/>
</clipPath>
</defs>
</svg>
