<svg width="100" height="129" viewBox="0 0 100 129" fill="none" xmlns="http://www.w3.org/2000/svg">
<mask id="path-1-outside-1_1179_38" maskUnits="userSpaceOnUse" x="18" y="25" width="65" height="81" fill="black">
<rect fill="white" x="18" y="25" width="65" height="81"/>
<path d="M55.809 73.987H34.554L22.782 62.433V40.96L34.445 29.297H66.382L78.045 40.96V55.348H58.098V48.045L55.7 45.647H45.127L42.729 48.045V55.348L45.127 57.637H66.382L78.045 69.3V90.337L66.382 102H34.445L22.782 90.337V76.385H42.729V83.252L45.127 85.65H55.7L58.098 83.252V76.385L55.809 73.987Z"/>
</mask>
<path d="M55.809 73.987H34.554L22.782 62.433V40.96L34.445 29.297H66.382L78.045 40.96V55.348H58.098V48.045L55.7 45.647H45.127L42.729 48.045V55.348L45.127 57.637H66.382L78.045 69.3V90.337L66.382 102H34.445L22.782 90.337V76.385H42.729V83.252L45.127 85.65H55.7L58.098 83.252V76.385L55.809 73.987Z" fill="#69340F"/>
<path d="M55.809 73.987L58.7024 71.2251L57.5206 69.987H55.809V73.987ZM34.554 73.987L31.7521 76.8417L32.919 77.987H34.554V73.987ZM22.782 62.433H18.782V64.1118L19.9801 65.2877L22.782 62.433ZM22.782 40.96L19.9536 38.1316L18.782 39.3031V40.96H22.782ZM34.445 29.297V25.297H32.7881L31.6166 26.4686L34.445 29.297ZM66.382 29.297L69.2104 26.4686L68.0389 25.297H66.382V29.297ZM78.045 40.96H82.045V39.3031L80.8734 38.1316L78.045 40.96ZM78.045 55.348V59.348H82.045V55.348H78.045ZM58.098 55.348H54.098V59.348H58.098V55.348ZM58.098 48.045H62.098V46.3881L60.9264 45.2166L58.098 48.045ZM55.7 45.647L58.5284 42.8186L57.3569 41.647H55.7V45.647ZM45.127 45.647V41.647H43.4701L42.2986 42.8186L45.127 45.647ZM42.729 48.045L39.9006 45.2166L38.729 46.3881V48.045H42.729ZM42.729 55.348H38.729V57.0596L39.9671 58.2414L42.729 55.348ZM45.127 57.637L42.3651 60.5304L43.5244 61.637H45.127V57.637ZM66.382 57.637L69.2104 54.8086L68.0389 53.637H66.382V57.637ZM78.045 69.3H82.045V67.6431L80.8734 66.4716L78.045 69.3ZM78.045 90.337L80.8734 93.1654L82.045 91.9939V90.337H78.045ZM66.382 102V106H68.0389L69.2104 104.828L66.382 102ZM34.445 102L31.6166 104.828L32.7881 106H34.445V102ZM22.782 90.337H18.782V91.9939L19.9536 93.1654L22.782 90.337ZM22.782 76.385V72.385H18.782V76.385H22.782ZM42.729 76.385H46.729V72.385H42.729V76.385ZM42.729 83.252H38.729V84.9089L39.9006 86.0804L42.729 83.252ZM45.127 85.65L42.2986 88.4784L43.4701 89.65H45.127V85.65ZM55.7 85.65V89.65H57.3569L58.5284 88.4784L55.7 85.65ZM58.098 83.252L60.9264 86.0804L62.098 84.9089V83.252H58.098ZM58.098 76.385H62.098V74.7824L60.9914 73.6231L58.098 76.385ZM55.809 69.987H34.554V77.987H55.809V69.987ZM37.3559 71.1323L25.5839 59.5783L19.9801 65.2877L31.7521 76.8417L37.3559 71.1323ZM26.782 62.433V40.96H18.782V62.433H26.782ZM25.6104 43.7884L37.2734 32.1254L31.6166 26.4686L19.9536 38.1316L25.6104 43.7884ZM34.445 33.297H66.382V25.297H34.445V33.297ZM63.5536 32.1254L75.2166 43.7884L80.8734 38.1316L69.2104 26.4686L63.5536 32.1254ZM74.045 40.96V55.348H82.045V40.96H74.045ZM78.045 51.348H58.098V59.348H78.045V51.348ZM62.098 55.348V48.045H54.098V55.348H62.098ZM60.9264 45.2166L58.5284 42.8186L52.8716 48.4754L55.2696 50.8734L60.9264 45.2166ZM55.7 41.647H45.127V49.647H55.7V41.647ZM42.2986 42.8186L39.9006 45.2166L45.5574 50.8734L47.9554 48.4754L42.2986 42.8186ZM38.729 48.045V55.348H46.729V48.045H38.729ZM39.9671 58.2414L42.3651 60.5304L47.8889 54.7436L45.4909 52.4546L39.9671 58.2414ZM45.127 61.637H66.382V53.637H45.127V61.637ZM63.5536 60.4654L75.2166 72.1284L80.8734 66.4716L69.2104 54.8086L63.5536 60.4654ZM74.045 69.3V90.337H82.045V69.3H74.045ZM75.2166 87.5086L63.5536 99.1716L69.2104 104.828L80.8734 93.1654L75.2166 87.5086ZM66.382 98H34.445V106H66.382V98ZM37.2734 99.1716L25.6104 87.5086L19.9536 93.1654L31.6166 104.828L37.2734 99.1716ZM26.782 90.337V76.385H18.782V90.337H26.782ZM22.782 80.385H42.729V72.385H22.782V80.385ZM38.729 76.385V83.252H46.729V76.385H38.729ZM39.9006 86.0804L42.2986 88.4784L47.9554 82.8216L45.5574 80.4236L39.9006 86.0804ZM45.127 89.65H55.7V81.65H45.127V89.65ZM58.5284 88.4784L60.9264 86.0804L55.2696 80.4236L52.8716 82.8216L58.5284 88.4784ZM62.098 83.252V76.385H54.098V83.252H62.098ZM60.9914 73.6231L58.7024 71.2251L52.9156 76.7489L55.2046 79.1469L60.9914 73.6231Z" fill="#072532" mask="url(#path-1-outside-1_1179_38)"/>
<rect x="7" y="61" width="86" height="7" fill="#8D5F3E"/>
</svg>
